<?xml version="1.0" encoding="UTF-8"?>
<svg id="svg5124" xmlns="http://www.w3.org/2000/svg" xmlns:svg="http://www.w3.org/2000/svg" xmlns:sodipodi="http://sodipodi.sourceforge.net/DTD/sodipodi-0.dtd" xmlns:rdf="http://www.w3.org/1999/02/22-rdf-syntax-ns#" xmlns:inkscape="http://www.inkscape.org/namespaces/inkscape" xmlns:dc="http://purl.org/dc/elements/1.1/" xmlns:cc="http://creativecommons.org/ns#" version="1.1" viewBox="0 0 80 80">
  <!-- Generator: Adobe Illustrator 29.0.0, SVG Export Plug-In . SVG Version: 2.1.0 Build 186)  -->
  <defs>
    <style>
      .st0 {
        fill: #393e41;
      }
    </style>
  </defs>
  <sodipodi:namedview id="namedview30" bordercolor="#666666" borderopacity="1" gridtolerance="10" guidetolerance="10" inkscape:current-layer="g26" inkscape:cx="-7.0738609" inkscape:cy="32.656515" inkscape:pageopacity="0" inkscape:pageshadow="2" inkscape:window-height="1005" inkscape:window-maximized="0" inkscape:window-width="1916" inkscape:window-x="0" inkscape:window-y="73" inkscape:zoom="4.6130533" objecttolerance="10" pagecolor="#ffffff" showgrid="false"/>
  <path id="BILDMARKE" class="st0" d="M64.5468,26.4704c5.5342-2.9303,5.4662-10.8818-.1174-13.717L40.2919.4972l-24.0437,12.2655c-5.5652,2.839-5.6346,10.7662-.1199,13.7022l20.5274,10.9286c1.1349.6042,2.3827.9063,3.6309.9063,1.2421,0,2.4846-.2994,3.6154-.8981l20.6449-10.9313ZM40.2866,32.0488c-.2409,0-.4806-.0599-.6933-.1731l-20.5274-10.9286c-.6527-.3475-.7854-.9069-.7819-1.315.0036-.4081.1461-.9652.8048-1.3012l21.2097-10.8198,21.3008,10.8158c.6608.3356.8037.8937.8072,1.3027.0035.4091-.1298.9696-.7849,1.3164l-20.6449,10.9313c-.2119.1122-.4505.1715-.6902.1715ZM79.2347,35.9598c-.0214-4.4727-3.6963-7.7002-7.7314-7.7002-1.1926,0-2.4181.283-3.5877.8982l-21.4062,11.2467c-2.5415,1.3358-4.1322,3.9694-4.1322,6.8399v23.9345c0,4.4974,3.6913,7.7363,7.7347,7.7363,1.2288,0,2.4921-.2994,3.693-.9558l25.5663-13.956-.1365-28.0437ZM50.7305,72.3288c-.2105.1152-.4129.1711-.6185.1711-.4145,0-1.3193-.3323-1.3193-1.3209v-23.9345c0-.4886.2681-.9327.7008-1.1614l21.4062-11.2468c.2056-.1085.403-.1612.6037-.1612.528,0,1.3127.4178,1.316,1.316l.1184,24.2158-22.2073,12.1219ZM37.7395,47.9803v23.6555c0,2.6233-1.3468,4.9886-3.6028,6.3274-1.167.6924-2.4586,1.0397-3.7521,1.0397-1.2073.0002-2.4163-.3023-3.5278-.9091L.6287,63.7755l.061-8.5242c.0126-1.7637,1.4465-3.1848,3.2072-3.1848.0079,0,.0156,0,.0235.0002,1.7716.0127,3.1973,1.459,3.1847,3.2305l-.0336,4.6863,22.8592,12.4792c.4093.2233.7597.0853.932-.0169.1723-.1022.4613-.3435.4613-.8101v-23.6555c0-1.1926-.6558-2.2781-1.7117-2.8328l-17.7746-9.3393-3.5566-1.903c-.3358-.1668-.6179-.0731-.7965.036-.1812.1104-.3973.3227-.3973.7073v5.575c0,1.7716-1.4361,3.2077-3.2077,3.2077s-3.2077-1.4361-3.2077-3.2077v-5.575c0-2.5478,1.2989-4.8602,3.4745-6.1859,2.1755-1.326,4.8261-1.4199,7.0903-.2517l.0427.0225,3.5745,1.9126,17.7422,9.3221c3.1724,1.6668,5.1431,4.9285,5.1431,8.5121Z"/>
</svg>