<?xml version="1.0" encoding="UTF-8"?>
<svg id="svg8" xmlns="http://www.w3.org/2000/svg" xmlns:svg="http://www.w3.org/2000/svg" xmlns:sodipodi="http://sodipodi.sourceforge.net/DTD/sodipodi-0.dtd" xmlns:rdf="http://www.w3.org/1999/02/22-rdf-syntax-ns#" xmlns:inkscape="http://www.inkscape.org/namespaces/inkscape" xmlns:dc="http://purl.org/dc/elements/1.1/" xmlns:cc="http://creativecommons.org/ns#" version="1.1" viewBox="0 0 402 402">
  <!-- Generator: Adobe Illustrator 29.0.0, SVG Export Plug-In . SVG Version: 2.1.0 Build 186)  -->
  <defs>
    <style>
      .st0 {
        fill: #52b2e5;
      }

      .st1 {
        fill: #1e1e1d;
        font-family: Helvetica, Helvetica;
        font-size: 12px;
      }

      .st1, .st2 {
        isolation: isolate;
      }

      .st3 {
        fill: #fff;
        stroke: #52b2e5;
        stroke-linecap: round;
        stroke-miterlimit: 26.7;
        stroke-width: 2px;
      }
    </style>
  </defs>
  <g id="layer1" inkscape:groupmode="layer" inkscape:label="Background">
    <rect id="rect-background" class="st3" x="1" y="1" width="400" height="400" rx="16" ry="16"/>
  </g>
  <g id="layer3" inkscape:groupmode="layer" inkscape:label="Text">
    <g id="text901" class="st2">
      <g class="st2">
        <text class="st1" transform="translate(72.2637 280)"><tspan x="0" y="0">Starting Univention Management Console Server</tspan></text>
      </g>
    </g>
  </g>
  <path id="BILDMARKE" class="st0" d="M226.014,87.4676c5.6396-2.9861,5.5702-11.089-.1196-13.9781l-24.5969-12.4895-24.5013,12.4989c-5.6712,2.893-5.7418,10.9711-.1222,13.963l20.9181,11.1367c1.1565.6157,2.428.9236,3.7.9236,1.2657,0,2.5319-.3051,3.6842-.9152l21.0378-11.1393h-.0001ZM201.292,93.1522c-.2455,0-.4898-.061-.7065-.1764l-20.9181-11.1367c-.6651-.3541-.8004-.9242-.7968-1.3401.0037-.4159.1489-.9835.8201-1.3259l21.6134-11.0257,21.7063,11.0217c.6734.342.819.9107.8226,1.3275.0036.4169-.1323.988-.7998,1.3414l-21.0379,11.1394c-.2159.1143-.4591.1747-.7034.1747h.0001ZM240.9816,97.1377c-.0218-4.5578-3.7667-7.8467-7.8786-7.8467-1.2153,0-2.4642.2884-3.656.9153l-21.8136,11.4608c-2.5899,1.3612-4.2109,4.0449-4.2109,6.9701v24.3901c0,4.583,3.7616,7.8836,7.882,7.8836,1.2522,0,2.5396-.3051,3.7633-.9739l26.053-14.2217-.1391-28.5775h0ZM211.9347,134.1989c-.2145.1173-.4207.1743-.6303.1743-.4224,0-1.3444-.3386-1.3444-1.3461v-24.3901c0-.4979.2732-.9505.7141-1.1835l21.8136-11.4608c.2095-.1106.4107-.1643.6152-.1643.5381,0,1.3377.4258,1.3411,1.3411l.1207,24.6767-22.63,12.3526h0ZM198.6964,109.3869v24.1058c0,2.6732-1.3725,5.0835-3.6714,6.4478-1.1892.7055-2.5054,1.0595-3.8235,1.0595-1.2303.0002-2.4623-.3081-3.5949-.9264l-26.7272-14.5908.0622-8.6864c.0129-1.7973,1.474-3.2454,3.2682-3.2454.008,0,.0159,0,.0239.0002,1.8053.013,3.2582,1.4867,3.2453,3.292l-.0342,4.7755,23.2944,12.7168c.4171.2275.7741.0869.9498-.0172.1756-.1041.4701-.35.4701-.8255v-24.1058c0-1.2153-.6683-2.3214-1.7442-2.8867l-18.1129-9.517-3.6243-1.9392c-.3422-.1699-.6297-.0745-.8116.0367-.1846.1125-.4048.3289-.4048.7208v5.6811c0,1.8053-1.4635,3.2688-3.2688,3.2688s-3.2688-1.4635-3.2688-3.2688v-5.6811c0-2.5963,1.3236-4.9527,3.5407-6.3036,2.2169-1.3512,4.9179-1.447,7.2253-.2565l.0435.0229,3.6425,1.949,18.0799,9.4996c3.2327,1.6986,5.241,5.0223,5.241,8.6742l-.0002-.0003Z"/>
</svg>