<?xml version="1.0" encoding="UTF-8"?>
<svg id="SvgjsSvg374599" xmlns="http://www.w3.org/2000/svg" xmlns:svgjs="http://svgjs.com/svgjs" version="1.1" viewBox="0 0 180 120">
  <!-- Generator: Adobe Illustrator 29.0.0, SVG Export Plug-In . SVG Version: 2.1.0 Build 186)  -->
  <defs>
    <style>
      .st0 {
        fill: #fff;
      }

      .st0, .st1, .st2 {
        fill-rule: evenodd;
      }

      .st3 {
        fill: #52b2e5;
      }

      .st1 {
        fill: #bdbdbb;
      }

      .st2 {
        fill: #eee;
      }
    </style>
  </defs>
  <path class="st0" d="M5,0h169.9999c2.7651,0,5.0001,2.235,5.0001,5v110c0,2.765-2.235,5-5.0001,5H5C2.2348,120-.0001,117.765-.0001,115V5C-.0001,2.235,2.2348,0,5,0Z"/>
  <path class="st1" d="M5,0h169.9999c2.7651,0,5.0001,2.235,5.0001,5v15H-.0001V5C-.0001,2.235,2.2348,0,5,0Z"/>
  <path class="st0" d="M34.4999,5h137.9999c1.3825,0,2.5,1.1175,2.5,2.5v5c0,1.3825-1.1175,2.5-2.5,2.5H34.4999c-1.3825,0-2.5-1.1175-2.5-2.5v-5c0-1.3825,1.1175-2.5,2.5-2.5Z"/>
  <path class="st2" d="M7.4999,5h7.5001v10h-7.5001c-1.3825,0-2.5-1.1175-2.5-2.5v-5c0-1.3825,1.1175-2.5,2.5-2.5Z"/>
  <path class="st2" d="M16.9999,5h7.5001c1.3825,0,2.5,1.1175,2.5,2.5v5c0,1.3825-1.1175,2.5-2.5,2.5h-7.5001V5h0Z"/>
  <path id="BILDMARKE" class="st3" d="M108.7603,59.8507c4.2297-2.2396,4.1777-8.3167-.0897-10.4836l-18.4477-9.3671-18.376,9.3742c-4.2534,2.1698-4.3064,8.2284-.0917,10.4722l15.6886,8.3525c.8674.4618,1.821.6927,2.775.6927.9493,0,1.8989-.2288,2.7631-.6864l15.7784-8.3545ZM90.2188,64.1141c-.1841,0-.3673-.0458-.5299-.1323l-15.6886-8.3525c-.4989-.2656-.6003-.6932-.5976-1.0051.0027-.3119.1117-.7377.6151-.9945l16.2101-8.2693,16.2797,8.2663c.5051.2565.6143.683.6169.9956.0027.3127-.0992.741-.5998,1.0061l-15.7784,8.3545c-.1619.0857-.3443.131-.5275.131ZM119.986,67.1032c-.0164-3.4184-2.825-5.8851-5.9089-5.8851-.9115,0-1.8481.2163-2.742.6865l-16.3602,8.5956c-1.9424,1.0209-3.1582,3.0337-3.1582,5.2275v18.2925c0,3.4372,2.8212,5.9127,5.9115,5.9127.9391,0,1.9047-.2288,2.8225-.7305l19.5397-10.6662-.1043-21.4331ZM98.2008,94.8991c-.1609.088-.3156.1307-.4727.1307-.3168,0-1.0083-.254-1.0083-1.0095v-18.2925c0-.3734.2049-.7129.5356-.8876l16.3602-8.5956c.1571-.083.308-.1232.4614-.1232.4036,0,1.0033.3193,1.0058,1.0058l.0905,18.5075-16.9725,9.2645ZM88.2721,76.2902v18.0793c0,2.0049-1.0294,3.8127-2.7536,4.8359-.8919.5292-1.879.7946-2.8677.7946-.9227.0001-1.8467-.2311-2.6962-.6948l-20.0454-10.9431.0466-6.5148c.0096-1.348,1.1055-2.434,2.4512-2.434.006,0,.0119,0,.0179.0001,1.354.0097,2.4437,1.1151,2.434,2.469l-.0257,3.5816,17.4708,9.5376c.3128.1706.5806.0652.7123-.0129.1317-.0781.3526-.2625.3526-.6191v-18.0793c0-.9115-.5012-1.7411-1.3082-2.165l-13.5847-7.1378-2.7182-1.4544c-.2566-.1274-.4722-.0559-.6087.0275-.1385.0844-.3036.2466-.3036.5406v4.2608c0,1.354-1.0976,2.4516-2.4516,2.4516s-2.4516-1.0976-2.4516-2.4516v-4.2608c0-1.9472.9927-3.7146,2.6555-4.7277,1.6627-1.0134,3.6884-1.0852,5.4189-.1924l.0326.0172,2.7319,1.4618,13.5599,7.1247c2.4246,1.2739,3.9308,3.7668,3.9308,6.5056Z"/>
</svg>